# xmcd
#
# Track frame offsets:
#	150
#	14767
#	27717
#	43221
#	58552
#	74041
#	89458
#	105221
#	122291
#	137108
#	152561
#	168500
#	183449
#	196685
#	210689
#	224514
#	239323
#	255189
#	269163
#
# Disc length: 3775 seconds
#
# Revision: 0
# Processed by: cddbd v1.5.2PL0 Copyright (c) Steve Scherf et al.
# Submitted via: EasyCDDAExtractor 16.0.6.1
#
DISCID=190ebd13
DTITLE=Συλλογικός δίσκος - Ελληνικό Πάσχα 1
DYEAR=2012
DGENRE=Παραδοσιακή
TTITLE0=Παπασιδέρης Γιώργος - Ένας αητός [παραδ. διασκ. Γ. Παπασιδέρης]
TTITLE1=Μηττάκη Γεωργία - Μού παρήγγειλε το αηδόνι [παραδ., διασκ. Γ. Μηττάκη]
TTITLE2=Κιτσάκης Αλέκος - Γιάννη μου το μαντήλι σου [παραδ., διασκ. Α. Κιτσάκη
TTITLE2=ς]
TTITLE3=Βλαχοβαγγέλης Δημοσθένης - Παιδιά της Σαμαρίνας [παραδοσιαό]
TTITLE4=Ρούκουνας Κώστας - Ιτιά, ιτιά [Γλ. Χασάπη-Ι. Μητσόπουλος]
TTITLE5=Ζάχος Δημήτρης - Μιά βοσκοπούλα αγάπησα [Δημήτρης Ζάχος]
TTITLE6=Παπασιδέρης Γιώργος - Στα Σάλωνα [παραδ., διασκ. Γ. Παπασιδέρης]
TTITLE7=Κολλητήρη Σοφία - Σελίμπεης [Γ. Παπασιδέρης]
TTITLE8=Παπασιδέρης Γιώργος - Ο αμάραντος [τσάμικος]
TTITLE9=Χαλκιάς Κυριάκος - Στης πικροδάφνης τον ανθό [παραδ., διασκ. Φ. Χαλικό
TTITLE9=πουλος]
TTITLE10=Μπέλλος Στέλιος - Τώρα τα πουλιά [παραδ., διασκ. Σ. Μπέλλος]
TTITLE11=Παπασιδέρης Γιώργος - Πουλάκι ξένο [παραδ., διασκ. Γ. Παπασιδέρης]
TTITLE12=Βλαχόπουλος Δημήτρης - Παπαλάμπραινα [παραδοσιακό]
TTITLE13=Παπασιδέρης Γιώργος - Πουλιά μου διαβατάρικα [παραδ., διασκ. ιδίου κ 
TTITLE13=Δ. Σέμση]
TTITLE14=Κιτσάκης Αλέκος - Ο Κατσαντώνης [παραδ., διασκ. Α. Κιτσάκης]
TTITLE15=Παπασιδέρης Γιώργος - Νά 'σαν τα νιάτα δυό φορές [παραδοσιακό]
TTITLE16=Κιτσάκης Αλέκος - Μωρή κοντούλα λεμονιά [παραδ., διασκ. Α. Κιτσάκης]
TTITLE17=Ζάχος Δημήτρης - Ταίρι μου ξενητεμένο [Δημ. Κόλλιας-Γεώρ. Τρίμμης]
TTITLE18=Παπασιδέρης Γιώργος - Το φεγγάρι κάνει κύκλο [Γιώργος Παπασιδέρης]
EXTD=
EXTT0=
EXTT1=
EXTT2=
EXTT3=
EXTT4=
EXTT5=
EXTT6=
EXTT7=
EXTT8=
EXTT9=
EXTT10=
EXTT11=
EXTT12=
EXTT13=
EXTT14=
EXTT15=
EXTT16=
EXTT17=
EXTT18=
PLAYORDER=
